<svg version="1.0" xmlns="http://www.w3.org/2000/svg"
 width="420.000000pt" height="420.000000pt" viewBox="0 0 420.000000 420.000000"
 preserveAspectRatio="xMidYMid meet">

<g transform="translate(0.000000,420.000000) scale(0.100000,-0.100000)"
fill="#000000" stroke="none">
<path d="M1887 3694 c-101 -15 -280 -60 -319 -80 -35 -18 -68 -61 -68 -89 0
-18 -13 -27 -72 -50 -104 -39 -154 -74 -229 -157 -131 -145 -180 -234 -183
-328 -1 -43 4 -62 22 -86 l24 -31 -30 -60 c-29 -57 -54 -83 -157 -167 -33 -28
-57 -58 -78 -105 -28 -59 -31 -75 -31 -166 -1 -89 2 -105 26 -150 14 -27 42
-65 62 -84 l35 -34 -30 -38 c-16 -20 -36 -53 -44 -72 -8 -19 -30 -44 -48 -56
-57 -35 -125 -115 -137 -161 -18 -66 -7 -111 70 -288 62 -143 34 -242 -69
-242 -26 0 -55 -6 -65 -13 -17 -12 -18 -19 -7 -64 15 -61 66 -125 122 -154 49
-25 135 -41 173 -33 l28 6 -6 77 c-3 42 -9 142 -12 223 l-7 146 26 26 c25 25
31 26 137 26 60 0 110 1 110 3 0 2 -8 21 -19 43 -18 39 -44 134 -56 211 -6 35
-4 43 14 52 11 6 24 11 30 11 14 0 41 -54 41 -82 0 -13 10 -69 22 -125 l21
-103 57 0 57 0 -18 93 c-9 50 -22 184 -28 296 l-11 205 32 34 c31 31 145 98
154 89 2 -2 -7 -14 -21 -27 -25 -23 -33 -54 -17 -64 5 -3 43 6 86 20 98 31
198 32 285 4 68 -23 97 -20 106 11 13 41 -12 65 -95 93 -10 3 -9 5 5 5 11 1
34 -6 50 -15 67 -36 227 -84 280 -84 46 0 149 26 218 55 13 6 16 4 11 -9 -10
-25 4 -64 25 -71 11 -3 48 3 82 15 87 28 187 27 285 -4 43 -14 81 -23 86 -20
17 11 7 48 -19 71 l-28 24 30 -11 c79 -30 99 -49 128 -123 22 -57 27 -88 27
-152 0 -108 -17 -288 -34 -369 l-14 -66 58 0 58 0 12 65 c7 36 16 65 21 65 4
0 11 -31 15 -70 l7 -70 104 0 c98 0 105 -1 130 -26 l25 -25 -6 -187 c-4 -103
-10 -195 -13 -206 -5 -17 -1 -18 43 -12 61 9 179 63 226 105 36 31 68 85 68
114 0 9 -9 19 -21 22 -15 5 -19 13 -15 29 8 34 -30 48 -95 36 -71 -14 -68 -14
-85 25 -25 62 -18 161 22 287 48 149 54 235 24 306 -21 48 -74 107 -130 143
l-25 16 34 38 c54 62 73 117 72 216 0 150 -25 205 -141 309 -53 48 -92 93
-115 135 l-36 63 23 37 c54 92 7 218 -138 375 -24 25 -52 57 -63 72 -31 39
-103 83 -186 113 -66 24 -75 31 -75 52 0 15 -14 39 -33 58 -81 81 -489 148
-646 105 -48 -13 -108 -78 -117 -128 -9 -44 2 -169 21 -251 9 -35 13 -66 10
-69 -3 -3 -15 4 -28 16 -13 12 -28 22 -35 22 -6 0 -45 18 -87 40 -42 22 -96
45 -120 51 -52 13 -85 43 -113 102 -33 69 -30 71 233 136 43 11 106 34 140 52
33 17 71 35 85 40 24 7 24 7 -5 7 -16 0 -70 -6 -118 -14z m390 -33 c43 -22 94
-42 113 -46 98 -19 256 -68 267 -81 26 -35 -53 -147 -111 -158 -44 -8 -234
-100 -262 -127 -29 -27 -29 -20 -7 74 9 40 17 115 17 169 1 93 0 97 -30 135
-17 21 -46 46 -65 55 -19 10 -27 18 -17 18 10 0 52 -18 95 -39z m-773 -267 c9
-24 7 -28 -9 -14 -17 14 -20 30 -6 30 5 0 12 -7 15 -16z m1216 7 c0 -6 -4 -13
-10 -16 -5 -3 -10 1 -10 9 0 9 5 16 10 16 6 0 10 -4 10 -9z m-1484 -68 c-3 -4
17 -30 45 -59 l51 -52 -15 -44 c-9 -23 -19 -60 -22 -81 -6 -34 -9 -38 -28 -33
-12 4 -44 9 -71 13 -45 6 -48 5 -38 -13 14 -25 119 -126 202 -194 36 -29 102
-71 148 -93 45 -22 81 -42 78 -44 -9 -9 -167 66 -234 111 -83 55 -194 155
-221 200 -28 45 -26 90 8 162 26 54 84 134 99 134 3 0 2 -3 -2 -7z m1798 -82
c44 -74 60 -124 51 -169 -9 -49 -142 -181 -247 -246 -71 -44 -210 -106 -268
-120 l-25 -6 25 12 c14 6 66 30 115 53 54 25 122 68 171 108 85 69 174 163
174 184 0 16 5 15 -60 3 -60 -11 -70 -5 -70 42 0 15 -7 46 -16 69 l-17 40 47
48 c25 25 46 53 46 60 0 23 37 -16 74 -78z m-921 -268 c-7 -2 -19 -2 -25 0 -7
3 -2 5 12 5 14 0 19 -2 13 -5z m-468 -263 c13 -5 14 -9 5 -9 -8 0 -24 4 -35 9
-13 5 -14 9 -5 9 8 0 24 -4 35 -9z m-603 -18 c14 -6 15 -10 3 -25 -20 -28 -88
-6 -70 23 7 11 41 12 67 2z m661 1 c-7 -2 -19 -2 -25 0 -7 3 -2 5 12 5 14 0
19 -2 13 -5z m820 0 c-7 -2 -19 -2 -25 0 -7 3 -2 5 12 5 14 0 19 -2 13 -5z
m705 -10 c2 -7 -9 -18 -23 -23 -23 -9 -30 -7 -40 7 -11 15 -11 19 3 25 24 10
55 5 60 -9z m-2058 -93 c-8 -5 -22 -9 -30 -9 -10 0 -8 3 5 9 27 12 43 12 25 0z
m-10 -785 c0 -25 -2 -45 -5 -45 -3 0 -12 17 -22 38 -9 20 -19 40 -21 45 -2 4
8 7 22 7 24 0 26 -3 26 -45z"/>
<path d="M1568 1971 c-81 -32 -167 -106 -168 -144 0 -13 13 -6 55 28 31 25 57
45 58 45 1 0 1 -21 -1 -47 -2 -34 3 -57 17 -80 18 -28 26 -32 86 -38 41 -5 75
-3 90 3 13 6 31 8 42 6 11 -3 26 3 37 15 23 26 33 110 16 140 -6 13 -10 25 -7
27 8 9 58 -39 77 -74 17 -33 19 -35 20 -13 0 36 -44 94 -92 121 -57 32 -165
38 -230 11z m66 -53 c13 -22 -10 -50 -38 -46 -27 4 -33 38 -10 55 21 15 34 13
48 -9z"/>
<path d="M2439 1977 c-70 -26 -129 -89 -129 -136 1 -24 2 -23 20 11 19 35 69
83 77 74 3 -2 -1 -14 -7 -27 -18 -33 -7 -116 18 -141 18 -18 33 -21 99 -21
121 1 130 3 149 24 10 12 19 41 22 74 l5 56 26 -17 c14 -9 38 -28 54 -42 25
-24 27 -24 27 -6 0 29 -74 100 -138 131 -66 32 -166 41 -223 20z m59 -49 c19
-19 14 -46 -9 -53 -31 -10 -55 16 -40 44 13 24 31 27 49 9z"/>
<path d="M877 632 c-30 -33 -45 -85 -40 -135 4 -35 2 -52 -10 -65 -23 -25 -66
-115 -82 -170 -17 -59 -45 -206 -45 -238 l0 -24 1386 0 1386 0 -7 58 c-14 120
-37 210 -74 283 -25 52 -35 82 -30 95 18 45 9 100 -21 142 -17 23 -34 42 -38
42 -5 0 -14 -114 -21 -252 -7 -139 -15 -263 -18 -275 -3 -14 -22 -30 -48 -43
l-44 -21 -1083 6 c-1145 7 -1094 5 -1144 53 -19 18 -22 38 -34 291 -7 149 -14
271 -15 271 -1 0 -9 -8 -18 -18z"/>
</g>
</svg>
